HIERARCHY
ROOT Hips
{
	OFFSET 0.000000 0.000000 0.000000 
	CHANNELS 6 Xposition Yposition Zposition Yrotation Zrotation Xrotation 
	JOINT Lumbar
	{
		OFFSET 0.000000 0.000000 0.000000 
		CHANNELS 3 Zrotation Xrotation Yrotation
		JOINT Neck
		{
			OFFSET 0.000000 0.445665 0.000000 
			CHANNELS 3 Zrotation Xrotation Yrotation
			End Site
			{
				OFFSET 0.000000 0.227535 0.000000 
			}
		}
		JOINT RightShoulder
		{
			OFFSET 0.019635 0.377685 0.194865 
			CHANNELS 3 Zrotation Xrotation Yrotation
			JOINT RightElbow
			{
				OFFSET 0.000000 -0.243375 0.000000 
				CHANNELS 2 Zrotation Yrotation
				JOINT RightWrist
				{
					OFFSET 0.000000 -0.264825 0.000000 
					CHANNELS 2 Zrotation Xrotation
					End Site
					{
						OFFSET 0.006600 -0.176220 0.000990 
					}
				}
			}
		}
		JOINT LeftShoulder
		{
			OFFSET 0.019635 0.377685 -0.194865 
			CHANNELS 3 Zrotation Xrotation Yrotation
			JOINT LeftElbow
			{
				OFFSET 0.000000 -0.243375 0.000000 
				CHANNELS 2 Zrotation Yrotation
				JOINT LeftWrist
				{
					OFFSET 0.000000 -0.264825 0.000000 
					CHANNELS 2 Zrotation Xrotation
					End Site
					{
						OFFSET 0.006600 -0.176220 -0.000990 
					}
				}
			}
		}
	}
	JOINT RightHip
	{
		OFFSET 0.052140 -0.069960 0.075570 
		CHANNELS 3 Zrotation Xrotation Yrotation
		JOINT RightKnee
		{
			OFFSET 0.000000 -0.402270 0.000000 
			CHANNELS 1 Zrotation
			JOINT RightAnkle
			{
				OFFSET 0.000000 -0.404085 0.000000 
				CHANNELS 3 Zrotation Xrotation Yrotation
				End Site
				{
					OFFSET 0.204105 -0.089430 0.008415 
				}
			}
		}
	}
	JOINT LeftHip
	{
		OFFSET 0.052140 -0.069960 -0.075570 
		CHANNELS 3 Zrotation Xrotation Yrotation
		JOINT LeftKnee
		{
			OFFSET 0.000000 -0.402270 0.000000 
			CHANNELS 1 Zrotation
			JOINT LeftAnkle
			{
				OFFSET 0.000000 -0.404085 0.000000 
				CHANNELS 3 Zrotation Xrotation Yrotation
				End Site
				{
					OFFSET 0.204105 -0.089430 -0.008415 
				}
			}
		}
	}
}
MOTION
Frames: 19
Frame Time: 0.02
-0.2158 -0.28852 0.0865 25.72357 -20.61512 -3.4592 36.34762 1.39966 -0.85754 -6.85267 -1.9193 -2.11898 80.09553 -34.37091 48.80048 107.71066 89.4422 -11.98307 -6.05938 22.71126 29.49751 -43.76382 94.01438 -86.46541 11.29721 0.54853 96.93127 -10.51748 -2.34887 -77.63621 -7.33513 -1.34361 -2.92785 97.95314 12.46397 9.41017 -74.70209 -9.62657 2.90156 3.79707
-0.21577 -0.2883 0.08639 25.70919 -20.73072 -3.48543 36.42286 1.37361 -0.86198 -6.4028 -1.83548 -2.11898 81.13058 -33.60004 48.08482 107.32393 89.34662 -12.06971 -5.97482 22.86623 29.42214 -43.93067 93.93613 -86.46286 10.5686 0.58994 97.0266 -10.51503 -2.32993 -77.61896 -7.33885 -1.33891 -2.92659 98.06171 12.43835 9.38045 -74.68415 -9.63238 2.89864 3.79555
-0.21575 -0.28809 0.08628 25.70087 -20.83936 -3.50554 36.49279 1.34577 -0.85559 -5.93208 -1.75689 -2.11898 81.68209 -32.85427 47.169 106.89421 88.63962 -11.67477 -5.76449 22.93955 29.21463 -43.91252 93.84397 -86.42653 9.90919 0.72302 97.11874 -10.50095 -2.28981 -77.60218 -7.34095 -1.33823 -2.9273 98.165 12.41977 9.37004 -74.66838 -9.63735 2.89503 3.79356
-0.21572 -0.28789 0.08617 25.68952 -20.95023 -3.52815 36.56358 1.31948 -0.85445 -5.4708 -1.67664 -2.11898 82.46488 -32.10729 46.36666 106.48275 88.25074 -11.52385 -5.62148 23.03756 29.05853 -43.95924 93.76023 -86.3974 9.24132 0.81509 97.21158 -10.49255 -2.26017 -77.58531 -7.34379 -1.33569 -2.92706 98.27012 12.39756 9.3501 -74.65188 -9.64287 2.8918 3.79185
-0.21569 -0.28766 0.08605 25.67862 -21.06506 -3.55167 36.64066 1.29029 -0.85125 -5.00805 -1.59271 -2.11899 83.2027 -31.30444 45.47358 106.06168 87.71194 -11.26444 -5.43848 23.19072 28.9396 -44.09115 93.66692 -86.39959 8.47391 0.90398 97.3074 -10.4826 -2.22726 -77.56775 -7.3466 -1.3333 -2.92706 98.3777 12.37639 9.33212 -74.63435 -9.64786 2.8884 3.78992
-0.21568 -0.28747 0.08595 25.66853 -21.16988 -3.57193 36.70351 1.26662 -0.8499 -4.54433 -1.51802 -2.11899 83.91605 -30.62876 44.72 105.65641 87.32963 -11.11448 -5.30742 23.2107 28.71354 -44.00341 93.59021 -86.33097 7.93134 1.02079 97.39621 -10.47318 -2.19613 -77.55181 -7.3491 -1.33155 -2.92702 98.47873 12.35511 9.31525 -74.61944 -9.65365 2.88515 3.78832
-0.2157 -0.28738 0.08586 25.65874 -21.24988 -3.58504 36.72803 1.25878 -0.85795 -4.07947 -1.46636 -2.11899 84.7029 -30.29957 44.40478 105.30246 87.56499 -11.42202 -5.35513 22.8562 28.19987 -43.31323 93.56652 -86.05938 7.99133 1.20044 97.46779 -10.46675 -2.17355 -77.54019 -7.35106 -1.33076 -2.92639 98.56479 12.33074 9.29514 -74.61135 -9.66213 2.88247 3.78775
-0.21575 -0.28733 0.08579 25.64972 -21.31983 -3.59508 36.73852 1.2565 -0.86808 -3.61537 -1.42412 -2.11899 85.47716 -30.09919 44.23566 104.96859 87.97019 -11.85038 -5.45824 22.37459 27.58699 -42.41474 93.55952 -85.72076 8.27568 1.40372 97.53219 -10.46144 -2.15368 -77.53021 -7.35277 -1.33047 -2.92565 98.6441 12.30629 9.27589 -74.60579 -9.67136 2.87995 3.78751
-0.21578 -0.28725 0.08571 25.64075 -21.39367 -3.60636 36.75566 1.25153 -0.87632 -3.15321 -1.37839 -2.11899 86.24228 -29.8406 43.99618 104.62941 88.27124 -12.19937 -5.53263 21.96813 27.03498 -41.6378 93.54249 -85.42346 8.45868 1.59096 97.59906 -10.4565 -2.13354 -77.51955 -7.35462 -1.32983 -2.92494 98.72535 12.2827 9.25753 -74.59898 -9.68002 2.87733 3.78709
-0.21582 -0.28718 0.08563 25.63033 -21.47018 -3.61807 36.77141 1.24717 -0.88812 -2.67994 -1.32942 -2.119 87.05406 -29.58079 43.76596 104.27207 88.66373 -12.63375 -5.61766 21.48611 26.41194 -40.74197 93.53503 -85.07948 8.64191 1.8036 97.66923 -10.4476 -2.10874 -77.50866 -7.35629 -1.3298 -2.92436 98.81122 12.25596 9.23468 -74.59264 -9.68959 2.87482 3.78681
-0.21585 -0.28711 0.08556 25.62297 -21.53874 -3.62825 36.78686 1.24291 -0.8932 -2.23114 -1.28944 -2.119 87.77102 -29.35439 43.55445 103.95829 88.91573 -12.92648 -5.6953 21.13161 25.91478 -40.04554 93.51208 -84.8168 8.87647 1.96797 97.73078 -10.44717 -2.09442 -77.49862 -7.35829 -1.32862 -2.92347 98.88587 12.23554 9.22083 -74.58593 -9.69748 2.87213 3.78632
-0.21584 -0.28703 0.0855 25.6244 -21.5888 -3.63487 36.80431 1.23731 -0.87883 -1.84258 -1.27133 -2.119 88.23908 -29.1847 43.35372 103.75792 88.7258 -12.7907 -5.73963 21.16676 25.79218 -39.96127 93.44002 -84.79915 9.20271 1.99099 97.77093 -10.47153 -2.10952 -77.49054 -7.36138 -1.3238 -2.92165 98.93151 12.23382 9.23435 -74.5773 -9.70032 2.86866 3.78503
-0.21581 -0.28694 0.08544 25.62875 -21.63104 -3.6401 36.82207 1.23167 -0.85778 -1.48018 -1.26202 -2.119 88.61258 -29.04492 43.16878 103.60139 88.39423 -12.5122 -5.77509 21.33376 25.79987 -40.08383 93.35235 -84.86508 9.57149 1.96457 97.80254 -10.50407 -2.13493 -77.48326 -7.3648 -1.31786 -2.91954 98.96601 12.23824 9.25635 -74.56826 -9.70147 2.86504 3.78355
-0.2158 -0.28686 0.08539 25.63139 -21.67631 -3.64607 36.84015 1.22622 -0.84008 -1.11045 -1.24906 -2.119 89.02557 -28.89394 42.9809 103.42625 88.13837 -12.30646 -5.81485 21.43666 25.74682 -40.10558 93.27335 -84.89013 9.91743 1.96184 97.83768 -10.53185 -2.15502 -77.47562 -7.36799 -1.31266 -2.91764 99.00545 12.23896 9.27253 -74.55958 -9.70354 2.86167 3.78224
-0.21578 -0.28677 0.08533 25.63569 -21.72355 -3.6515 36.85588 1.22024 -0.82104 -0.721 -1.23493 -2.11901 89.45322 -28.73712 42.77989 103.24597 87.83911 -12.07081 -5.85545 21.55301 25.69661 -40.1485 93.1881 -84.92485 10.28655 1.95491 97.87413 -10.5642 -2.17805 -77.468 -7.37147 -1.30654 -2.9154 99.0453 12.24339 9.29685 -74.55025 -9.70504 2.85755 3.78058
-0.21576 -0.28669 0.08528 25.6372 -21.76481 -3.65773 36.87663 1.2153 -0.80325 -0.37942 -1.22521 -2.11901 89.82724 -28.59821 42.60838 103.0869 87.59581 -11.86263 -5.89136 21.67398 25.6728 -40.19944 93.11216 -84.96039 10.61394 1.9446 97.90581 -10.58882 -2.19716 -77.46052 -7.37444 -1.30204 -2.91379 99.08157 12.24173 9.30649 -74.54213 -9.70728 2.85495 3.77959
-0.21575 -0.28662 0.08525 25.6304 -21.79294 -3.66692 36.9124 1.21316 -0.78995 -0.15899 -1.2256 -2.11901 90.08345 -28.49832 42.51186 102.97276 87.52927 -11.75984 -5.91734 21.77892 25.6903 -40.22117 93.06366 -84.97631 10.82007 1.93721 97.92742 -10.59141 -2.20481 -77.45319 -7.37591 -1.30246 -2.91409 99.11218 12.22027 9.27123 -74.53748 -9.7122 2.85676 3.78054
-0.21575 -0.28655 0.08521 25.62067 -21.81505 -3.6769 36.95305 1.21204 -0.7783 0.01315 -1.23011 -2.11901 90.28705 -28.41552 42.44444 102.87887 87.52472 -11.68963 -5.93841 21.8839 25.73028 -40.24508 93.02531 -84.9909 10.98091 1.92796 97.94433 -10.58576 -2.20791 -77.44595 -7.37686 -1.30452 -2.91502 99.13928 12.19277 9.22135 -74.53403 -9.71789 2.86008 3.78215
-0.21575 -0.28647 0.08518 25.61217 -21.83909 -3.68626 36.99075 1.21051 -0.76621 0.20456 -1.23253 -2.11901 90.51107 -28.32613 42.36449 102.77757 87.5001 -11.60803 -5.96097 21.98725 25.76035 -40.26948 92.98371 -85.00725 11.15831 1.91936 97.96283 -10.58289 -2.21171 -77.43867 -7.37805 -1.30574 -2.9156 99.16713 12.16899 9.17966 -74.53 -9.72308 2.8626 3.78341
